<?xml version="1.0" encoding="UTF-8" standalone="no"?>
<!-- Created with Inkscape (http://www.inkscape.org/) -->

<svg
   xmlns:dc="http://purl.org/dc/elements/1.1/"
   xmlns:cc="http://creativecommons.org/ns#"
   xmlns:rdf="http://www.w3.org/1999/02/22-rdf-syntax-ns#"
   xmlns:svg="http://www.w3.org/2000/svg"
   xmlns="http://www.w3.org/2000/svg"
   xmlns:sodipodi="http://sodipodi.sourceforge.net/DTD/sodipodi-0.dtd"
   xmlns:inkscape="http://www.inkscape.org/namespaces/inkscape"
   width="43"
   height="43"
   id="svg2"
   version="1.1"
   inkscape:version="0.48.0 r9654"
   sodipodi:docname="Jigsaw pieces 2.svg"
   inkscape:export-filename="C:\Datos\Proyectos\Jigsaw Puzzles\1010.png"
   inkscape:export-xdpi="90"
   inkscape:export-ydpi="90">
  <defs
     id="defs4" />
  <sodipodi:namedview
     id="base"
     pagecolor="#ffffff"
     bordercolor="#666666"
     borderopacity="1.0"
     inkscape:pageopacity="0.0"
     inkscape:pageshadow="2"
     inkscape:zoom="2.8"
     inkscape:cx="125.90087"
     inkscape:cy="-20.937179"
     inkscape:document-units="px"
     inkscape:current-layer="layer1"
     showgrid="false"
     inkscape:window-width="909"
     inkscape:window-height="546"
     inkscape:window-x="262"
     inkscape:window-y="244"
     inkscape:window-maximized="0"
     showguides="false">
    <sodipodi:guide
       position="0,0"
       orientation="0,744.09448"
       id="guide3417" />
    <sodipodi:guide
       position="744.09448,0"
       orientation="-1052.3622,0"
       id="guide3419" />
    <sodipodi:guide
       position="744.09448,1052.3622"
       orientation="0,-744.09448"
       id="guide3421" />
    <sodipodi:guide
       position="0,1052.3622"
       orientation="1052.3622,0"
       id="guide3423" />
    <sodipodi:guide
       position="0,0"
       orientation="0,135"
       id="guide3425" />
    <sodipodi:guide
       position="135,0"
       orientation="-135,0"
       id="guide3427" />
    <sodipodi:guide
       position="135,135"
       orientation="0,-135"
       id="guide3429" />
    <sodipodi:guide
       position="0,135"
       orientation="135,0"
       id="guide3431" />
    <sodipodi:guide
       position="0,0"
       orientation="0,135"
       id="guide3433" />
    <sodipodi:guide
       position="135,0"
       orientation="-135,0"
       id="guide3435" />
    <sodipodi:guide
       position="135,135"
       orientation="0,-135"
       id="guide3437" />
    <sodipodi:guide
       position="0,135"
       orientation="135,0"
       id="guide3439" />
  </sodipodi:namedview>
  <metadata
     id="metadata7">
    <rdf:RDF>
      <cc:Work
         rdf:about="">
        <dc:format>image/svg+xml</dc:format>
        <dc:type
           rdf:resource="http://purl.org/dc/dcmitype/StillImage" />
        <dc:title></dc:title>
      </cc:Work>
    </rdf:RDF>
  </metadata>
  <g
     inkscape:label="Capa 1"
     inkscape:groupmode="layer"
     id="layer1"
     transform="translate(0,-1009.3622)">
    <rect
       style="fill:#00ffff;stroke:none"
       id="rect2985-00"
       width="50"
       height="50"
       x="-208.88332"
       y="1178.4006" />
    <path
       sodipodi:type="arc"
       style="fill:#ff0000;stroke:none"
       id="path2987-0-3-5-6-8"
       sodipodi:cx="122.85714"
       sodipodi:cy="533.79077"
       sodipodi:rx="21.428572"
       sodipodi:ry="21.428572"
       d="m 144.28571,533.79077 a 21.428572,21.428572 0 1 1 -42.85714,0 21.428572,21.428572 0 1 1 42.85714,0 z"
       transform="matrix(0.55999999,0,0,0.55999999,-283.68332,904.47784)" />
    <path
       sodipodi:type="arc"
       style="fill:#ff0000;stroke:none"
       id="path2987-0-3-5-6"
       sodipodi:cx="122.85714"
       sodipodi:cy="533.79077"
       sodipodi:rx="21.428572"
       sodipodi:ry="21.428572"
       d="m 144.28571,533.79077 a 21.428572,21.428572 0 1 1 -42.85714,0 21.428572,21.428572 0 1 1 42.85714,0 z"
       transform="matrix(0.55999999,0,0,0.55999999,-252.68332,935.47784)" />
    <rect
       style="fill:#00ffff;stroke:none"
       id="rect2985"
       width="100"
       height="100"
       x="-282.85715"
       y="731.64789" />
    <path
       sodipodi:type="arc"
       style="fill:#ff0000;stroke:none"
       id="path2987"
       sodipodi:cx="122.85714"
       sodipodi:cy="533.79077"
       sodipodi:rx="21.428572"
       sodipodi:ry="21.428572"
       d="m 144.28571,533.79077 c 0,11.83467 -9.5939,21.42857 -21.42857,21.42857 -11.83467,0 -21.42857,-9.5939 -21.42857,-21.42857 0,-11.83467 9.5939,-21.42857 21.42857,-21.42857 11.83467,0 21.42857,9.5939 21.42857,21.42857 z"
       transform="matrix(1.1666667,0,0,1.1666667,-436.19046,158.89197)" />
    <path
       sodipodi:type="arc"
       style="fill:#ff0000;stroke:none"
       id="path2987-0"
       sodipodi:cx="122.85714"
       sodipodi:cy="533.79077"
       sodipodi:rx="21.428572"
       sodipodi:ry="21.428572"
       d="m 144.28571,533.79077 c 0,11.83467 -9.5939,21.42857 -21.42857,21.42857 -11.83467,0 -21.42857,-9.5939 -21.42857,-21.42857 0,-11.83467 9.5939,-21.42857 21.42857,-21.42857 11.83467,0 21.42857,9.5939 21.42857,21.42857 z"
       transform="matrix(1.1666667,0,0,1.1666667,-316.19047,158.89197)" />
    <path
       sodipodi:type="arc"
       style="fill:#ff0000;stroke:none"
       id="path2987-0-3"
       sodipodi:cx="122.85714"
       sodipodi:cy="533.79077"
       sodipodi:rx="21.428572"
       sodipodi:ry="21.428572"
       d="m 144.28571,533.79077 c 0,11.83467 -9.5939,21.42857 -21.42857,21.42857 -11.83467,0 -21.42857,-9.5939 -21.42857,-21.42857 0,-11.83467 9.5939,-21.42857 21.42857,-21.42857 11.83467,0 21.42857,9.5939 21.42857,21.42857 z"
       transform="matrix(1.1666667,0,0,1.1666667,-376.19047,218.89197)" />
    <path
       sodipodi:type="arc"
       style="fill:#ff0000;stroke:none"
       id="path2987-0-3-5"
       sodipodi:cx="122.85714"
       sodipodi:cy="533.79077"
       sodipodi:rx="21.428572"
       sodipodi:ry="21.428572"
       d="m 144.28571,533.79077 c 0,11.83467 -9.5939,21.42857 -21.42857,21.42857 -11.83467,0 -21.42857,-9.5939 -21.42857,-21.42857 0,-11.83467 9.5939,-21.42857 21.42857,-21.42857 11.83467,0 21.42857,9.5939 21.42857,21.42857 z"
       transform="matrix(1.1666667,0,0,1.1666667,-376.19047,98.891974)" />
    <path
       sodipodi:type="arc"
       style="fill:#00ff00;stroke:none"
       id="path2987-3"
       sodipodi:cx="122.85714"
       sodipodi:cy="533.79077"
       sodipodi:rx="21.428572"
       sodipodi:ry="21.428572"
       d="m 144.28571,533.79077 c 0,11.83467 -9.5939,21.42857 -21.42857,21.42857 -11.83467,0 -21.42857,-9.5939 -21.42857,-21.42857 0,-11.83467 9.5939,-21.42857 21.42857,-21.42857 11.83467,0 21.42857,9.5939 21.42857,21.42857 z"
       transform="matrix(1.1666667,0,0,1.1666667,-416.19046,158.89197)" />
    <path
       sodipodi:type="arc"
       style="fill:#00ff00;stroke:none"
       id="path2987-0-5"
       sodipodi:cx="122.85714"
       sodipodi:cy="533.79077"
       sodipodi:rx="21.428572"
       sodipodi:ry="21.428572"
       d="m 144.28571,533.79077 c 0,11.83467 -9.5939,21.42857 -21.42857,21.42857 -11.83467,0 -21.42857,-9.5939 -21.42857,-21.42857 0,-11.83467 9.5939,-21.42857 21.42857,-21.42857 11.83467,0 21.42857,9.5939 21.42857,21.42857 z"
       transform="matrix(1.1666667,0,0,1.1666667,-336.19047,158.89197)" />
    <path
       sodipodi:type="arc"
       style="fill:#00ff00;stroke:none"
       id="path2987-0-3-7"
       sodipodi:cx="122.85714"
       sodipodi:cy="533.79077"
       sodipodi:rx="21.428572"
       sodipodi:ry="21.428572"
       d="m 144.28571,533.79077 c 0,11.83467 -9.5939,21.42857 -21.42857,21.42857 -11.83467,0 -21.42857,-9.5939 -21.42857,-21.42857 0,-11.83467 9.5939,-21.42857 21.42857,-21.42857 11.83467,0 21.42857,9.5939 21.42857,21.42857 z"
       transform="matrix(1.1666667,0,0,1.1666667,-376.19047,198.89197)" />
    <path
       sodipodi:type="arc"
       style="fill:#00ff00;stroke:none"
       id="path2987-0-3-5-3"
       sodipodi:cx="122.85714"
       sodipodi:cy="533.79077"
       sodipodi:rx="21.428572"
       sodipodi:ry="21.428572"
       d="m 144.28571,533.79077 c 0,11.83467 -9.5939,21.42857 -21.42857,21.42857 -11.83467,0 -21.42857,-9.5939 -21.42857,-21.42857 0,-11.83467 9.5939,-21.42857 21.42857,-21.42857 11.83467,0 21.42857,9.5939 21.42857,21.42857 z"
       transform="matrix(1.1666667,0,0,1.1666667,-376.19047,118.89197)" />
    <path
       style="fill:#800080;stroke:none"
       d="m -22.058751,577.85655 0,27.09375 c 3.065121,-1.34092 6.440352,-2.09375 10,-2.09375 13.8071194,0 25,11.19288 25,24.99996 0,13.8072 -11.1928806,25 -25,25 -3.559648,0 -6.934879,-0.7528 -10,-2.0937 l 0,27.09382 27.0937504,0 c -1.335475,-3.0599 -2.09375,-6.448 -2.09375,-10 0,-13.80722 11.1928806,-25.00012 24.9999996,-25.00012 13.80712,0 25,11.1929 25,25.00012 0,3.552 -0.75827,6.9401 -2.09375,10 l 27.09375,0 0,-27.09382 c -3.06512,1.3409 -6.44035,2.0937 -10,2.0937 -13.80712,0 -25,-11.1928 -25,-25 0,-13.80708 11.19288,-24.99996 25,-24.99996 3.55965,0 6.93488,0.75283 10,2.09375 l 0,-27.09375 -27.09375,0 c 1.34092,3.06512 2.09375,6.44035 2.09375,10 0,13.80712 -11.19288,25 -25,25 -13.807119,0 -24.9999996,-11.19288 -24.9999996,-25 0,-3.55965 0.752834,-6.93488 2.09375,-10 l -27.0937504,0 z"
       id="rect2985-1"
       inkscape:connector-curvature="0"
       inkscape:export-filename="C:\Datos\Proyectos\Jigsaw Puzzles\0000.png"
       inkscape:export-xdpi="31.499989"
       inkscape:export-ydpi="31.499989" />
    <path
       style="fill:#800080;stroke:none"
       d="m 38.04277,702.46068 c -13.80712,0 -25,11.19288 -25,25 0,3.552 0.75828,6.94009 2.09375,10 l -27.093749,0 0,27.09375 c -3.059906,-1.33548 -6.447996,-2.09375 -9.999997,-2.09375 -13.80712,0 -25,11.19288 -25,25 0,13.80712 11.19288,25 25,25 3.552001,0 6.940091,-0.72702 9.999997,-2.0625 l 0,27.06256 27.093749,0 c -1.34273,3.0668 -2.09375,6.4378 -2.09375,10 0,13.8071 11.19288,25 25,25 13.80712,0 25.000004,-11.1929 25.000004,-25 0,-3.5622 -0.75102,-6.9332 -2.09375,-10 l 27.09375,0 0,-27.06256 c 3.06511,1.34092 6.440337,2.0625 9.999987,2.0625 13.807119,0 24.999999,-11.19288 24.999999,-25 0,-13.80712 -11.19288,-25 -24.999999,-25 -3.55965,0 -6.934877,0.75283 -9.999987,2.09375 l 0,-27.09375 -27.09375,0 c 1.33548,-3.05991 2.09375,-6.448 2.09375,-10 0,-13.80712 -11.192884,-25 -25.000004,-25 z"
       id="rect2985-4"
       inkscape:connector-curvature="0" />
    <path
       style="fill:#800080;stroke:none"
       d="m 250.17481,589.32369 c -13.80712,0 -25,11.19288 -25,25 0,3.5622 0.75102,6.93314 2.09375,10 l -27.09375,0 0,27.09375 c 3.06512,-1.34092 6.44035,-2.09375 10,-2.09375 13.80712,0 25,11.19288 25,25 0,13.80709 -11.19288,24.99999 -25,24.99999 -3.55965,0 -6.93488,-0.7528 -10,-2.0937 l 0,27.09367 27.09375,0 c -1.33548,3.0599 -2.09375,6.448 -2.09375,10 0,13.8071 11.19288,25 25,25 13.80712,0 25,-11.1929 25,-25 0,-3.552 -0.75827,-6.9401 -2.09375,-10 l 27.09375,0 0,-27.09367 c -3.06512,1.3409 -6.44035,2.0937 -10,2.0937 -13.80712,0 -25,-11.1929 -25,-24.99999 0,-13.80712 11.19288,-25 25,-25 3.55965,0 6.93488,0.75283 10,2.09375 l 0,-27.09375 -27.09375,0 c 1.34273,-3.06686 2.09375,-6.4378 2.09375,-10 0,-13.80712 -11.19288,-25 -25,-25 z"
       id="rect2985-14"
       inkscape:connector-curvature="0" />
    <path
       style="fill:#800080;stroke:none"
       d="m 419.88044,587.30334 c -13.80712,0 -25,11.19288 -25,25 0,3.55965 0.75283,6.93488 2.09375,10 l -27.09375,0 0,27.09375 c 3.05991,-1.33548 6.448,-2.09375 10,-2.09375 13.80712,0 25,11.19288 25,25 0,13.80712 -11.19288,25 -25,25 -3.552,0 -6.94009,-0.75827 -10,-2.09375 l 0,27.09376 27.09375,0 c -1.33548,3.0599 -2.09375,6.448 -2.09375,10 0,13.8071 11.19288,25 25,25 13.80712,0 25,-11.1929 25,-25 0,-3.552 -0.75827,-6.9401 -2.09375,-10 l 27.09375,0 0,-27.09376 c 3.05991,1.33548 6.448,2.09375 10,2.09375 13.80712,0 25,-11.19288 25,-25 0,-13.80712 -11.19288,-25 -25,-25 -3.552,0 -6.94009,0.75827 -10,2.09375 l 0,-27.09375 -27.09375,0 c 1.34092,-3.06512 2.09375,-6.44035 2.09375,-10 0,-13.80712 -11.19288,-25 -25,-25 z"
       id="rect2985-0"
       inkscape:connector-curvature="0" />
    <path
       style="fill:#800080;stroke:none"
       d="m 820.40847,628.36424 0,27.09375 c -3.06512,-1.34092 -6.44035,-2.09375 -10,-2.09375 -13.80712,0 -25,11.19288 -25,25 0,13.80712 11.19288,25 25,25 3.55965,0 6.93488,-0.7528 10,-2.09375 l 0,27.09377 27.0937,0 c -1.3354,-3.0599 -2.0937,-6.448 -2.0937,-10 0,-13.80712 11.1929,-25.00002 25,-25.00002 13.8071,0 25,11.1929 25,25.00002 0,3.552 -0.7583,6.9401 -2.0937,10 l 27.0937,0 0,-27.09377 c -3.0651,1.34095 -6.4404,2.09375 -10,2.09375 -13.8071,0 -25,-11.19288 -25,-25 0,-13.80712 11.1929,-25 25,-25 3.5596,0 6.9349,0.75283 10,2.09375 l 0,-27.09375 -27.0937,0 c 1.3407,3.06512 2.0937,6.44035 2.0937,10 0,13.80712 -11.1929,25 -25,25 -13.8071,0 -25,-11.19288 -25,-25 0,-3.55965 0.7528,-6.93488 2.0937,-10 l -27.0937,0 z"
       id="rect2985-6"
       inkscape:connector-curvature="0" />
    <path
       style="fill:#800080;stroke:none"
       d="m 1183.5558,617.60791 c -13.8072,0 -25,11.19288 -25,25 0,3.55965 0.7528,6.93488 2.0937,10 l -27.0937,0 0,27.09375 c 3.0598,-1.33548 6.4478,-2.09375 10,-2.09375 13.807,0 25,11.19288 25,25 0,13.80712 -11.193,24.99999 -25,24.99999 -3.5522,0 -6.9402,-0.7583 -10,-2.09374 l 0,27.09376 27.0937,0 c -1.3409,-3.0651 -2.0937,-6.4404 -2.0937,-10 0,-13.80712 11.1926,-25.00001 25,-25.00001 13.8069,0 25,11.19289 25,25.00001 0,3.5596 -0.7529,6.9349 -2.0938,10 l 27.0938,0 0,-27.09376 c 3.0599,1.33544 6.4479,2.09374 10,2.09374 13.8071,0 25,-11.19287 25,-24.99999 0,-13.80712 -11.1929,-25 -25,-25 -3.5521,0 -6.9401,0.75827 -10,2.09375 l 0,-27.09375 -27.0938,0 c 1.3409,-3.06512 2.0938,-6.44035 2.0938,-10 0,-13.80712 -11.1929,-25 -25,-25 z"
       id="rect2985-7"
       inkscape:connector-curvature="0" />
    <path
       inkscape:connector-curvature="0"
       style="fill:#00ffff;stroke:none"
       d="m 372.58222,873.81578 c 0,-13.80712 -11.19288,-25 -25,-25 -3.5622,0 -6.93314,0.75102 -10,2.09375 l 0,-27.09375 -27.09375,0 c 1.34092,3.06512 2.09375,6.44035 2.09375,10 0,13.80712 -11.19288,25 -25,25 -13.80712,0 -25,-11.19288 -25,-25 0,-3.55965 0.75283,-6.93488 2.09375,-10 l -27.09375,0 0,27.09375 c -3.05991,-1.33548 -6.448,-2.09375 -10,-2.09375 -13.80712,0 -25,11.19288 -25,25 0,13.80712 11.19288,25 25,25 3.552,0 6.94009,-0.75827 10,-2.09375 l 0,27.09375 27.09375,0 c -1.34092,-3.06512 -2.09375,-6.44035 -2.09375,-10 0,-13.80712 11.19288,-25 25,-25 13.80712,0 25,11.19288 25,25 0,3.55965 -0.75283,6.93488 -2.09375,10 l 27.09375,0 0,-27.09375 c 3.06686,1.34273 6.4378,2.09375 10,2.09375 13.80712,0 25,-11.19288 25,-25 z"
       id="rect2985-14-4" />
    <path
       inkscape:connector-curvature="0"
       style="fill:#00ffff;stroke:none"
       d="m 589.72508,853.45864 c 0,-13.80712 -11.19288,-25 -25,-25 -3.55965,0 -6.93488,0.75283 -10,2.09375 l 0,-27.09375 -27.09375,0 c 1.33548,3.05991 2.09375,6.448 2.09375,10 0,13.80712 -11.19288,25 -25,25 -13.80712,0 -25,-11.19288 -25,-25 0,-3.552 0.75827,-6.94009 2.09375,-10 l -27.09375,0 0,27.09375 c -3.05991,-1.33548 -6.448,-2.09375 -10,-2.09375 -13.80712,0 -25,11.19288 -25,25 0,13.80712 11.19288,25 25,25 3.552,0 6.94009,-0.75827 10,-2.09375 l 0,27.09375 27.09375,0 c -1.33548,3.05991 -2.09375,6.448 -2.09375,10 0,13.80712 11.19288,25 25,25 13.80712,0 25,-11.19288 25,-25 0,-3.552 -0.75827,-6.94009 -2.09375,-10 l 27.09375,0 0,-27.09375 c 3.06512,1.34092 6.44035,2.09375 10,2.09375 13.80712,0 25,-11.19288 25,-25 z"
       id="rect2985-0-1" />
    <path
       inkscape:connector-curvature="0"
       style="fill:#00ffff;stroke:none"
       d="m 714.64286,965.93361 c 13.80712,0 25,-11.19288 25,-25 0,-3.55965 -0.75283,-6.93488 -2.09375,-10 l 27.09375,0 0,-27.09375 c -3.05991,1.33548 -6.448,2.09375 -10,2.09375 -13.80712,0 -25,-11.19288 -25,-25 0,-13.80712 11.19288,-25 25,-25 3.552,0 6.94009,0.75827 10,2.09375 l 0,-27.09375 -27.09375,0 c 1.33548,-3.05991 2.09375,-6.448 2.09375,-10 0,-13.80712 -11.19288,-25 -25,-25 -13.80712,0 -25,11.19288 -25,25 0,3.552 0.75827,6.94009 2.09375,10 l -27.09375,0 0,27.09375 c -3.05991,-1.33548 -6.448,-2.09375 -10,-2.09375 -13.80712,0 -25,11.19288 -25,25 0,13.80712 11.19288,25 25,25 3.552,0 6.94009,-0.75827 10,-2.09375 l 0,27.09375 27.09375,0 c -1.34092,3.06512 -2.09375,6.44035 -2.09375,10 0,13.80712 11.19288,25 25,25 z"
       id="rect2985-0-1-6" />
    <path
       inkscape:connector-curvature="0"
       style="fill:#00ffff;stroke:none"
       d="m 566.42857,681.29075 c 0,13.80712 11.19288,25 25,25 3.55965,0 6.93488,-0.75283 10,-2.09375 l 0,27.09375 27.09375,0 c -1.33548,-3.05991 -2.09375,-6.448 -2.09375,-10 0,-13.80712 11.19288,-25 25,-25 13.80712,0 25,11.19288 25,25 0,3.552 -0.75827,6.94009 -2.09375,10 l 27.09375,0 0,-27.09375 c 3.05991,1.33548 6.448,2.09375 10,2.09375 13.80712,0 25,-11.19288 25,-25 0,-13.80712 -11.19288,-25 -25,-25 -3.552,0 -6.94009,0.75827 -10,2.09375 l 0,-27.09375 -27.09375,0 c 1.33548,-3.05991 2.09375,-6.448 2.09375,-10 0,-13.80712 -11.19288,-25 -25,-25 -13.80712,0 -25,11.19288 -25,25 0,3.552 0.75827,6.94009 2.09375,10 l -27.09375,0 0,27.09375 c -3.06512,-1.34092 -6.44035,-2.09375 -10,-2.09375 -13.80712,0 -25,11.19288 -25,25 z"
       id="rect2985-0-1-6-2" />
    <path
       style="fill:#00ffff;stroke:none"
       d="m 915.71427,819.86219 -27.09375,0 c 1.34092,-3.06512 2.09375,-6.44035 2.09375,-10 0,-13.80713 -11.19287,-25 -25,-25 -13.80712,0 -25,11.19287 -25,25 0,3.55965 0.75284,6.93488 2.09375,10 l -27.09375,0 0,27.0937 c 3.05991,-1.33541 6.448,-2.0937 10,-2.0937 13.80713,0 25,11.1929 25,25 0,13.8071 -11.19287,25 -25,25 -3.552,0 -6.94009,-0.7583 -10,-2.0937 l 0,27.09369 27.09375,0 c -1.34091,-3.0651 -2.09375,-6.44039 -2.09375,-9.99999 0,-13.8071 11.19288,-25 25,-25 13.80713,0 25,11.1929 25,25 0,3.5596 -0.75283,6.93489 -2.09375,9.99999 l 27.09375,0 0,-27.09369 c -3.06511,1.34069 -6.44034,2.0937 -10,2.0937 -13.80712,0 -25,-11.1929 -25,-25 0,-13.8071 11.19288,-25 25,-25 3.55966,0 6.93489,0.75279 10,2.0937 l 0,-27.0937 z"
       id="rect2985-6-7"
       inkscape:connector-curvature="0" />
    <path
       style="fill:#00ffff;stroke:none"
       d="m 1041.0714,925.21932 0,-27.0937 c 3.0652,1.3409 6.4404,2.0937 10,2.0937 13.8072,0 25,-11.1929 25,-24.9999 0,-13.8072 -11.1928,-25.00005 -25,-25.00005 -3.5596,0 -6.9348,0.75284 -10,2.09375 l 0,-27.09375 -27.0937,0 c 1.3355,3.05991 2.0937,6.448 2.0937,10 0,13.80713 -11.1929,25.00005 -24.99999,25.00005 -13.8071,0 -25.00003,-11.19292 -25.00003,-25.00005 0,-3.552 0.75833,-6.94009 2.09373,-10 l -27.09373,0 0,27.09375 c 3.0651,-1.34091 6.4404,-2.09375 10,-2.09375 13.8071,0 25.00003,11.19285 25.00003,25.00005 0,13.807 -11.19293,24.9999 -25.00003,24.9999 -3.5596,0 -6.9349,-0.7528 -10,-2.0937 l 0,27.0937 27.09373,0 c -1.34069,-3.0651 -2.09373,-6.4403 -2.09373,-10 0,-13.8071 11.19293,-25 25.00003,-25 13.80709,0 24.99999,11.1929 24.99999,25 0,3.5597 -0.7527,6.9349 -2.0937,10 l 27.0937,0 z"
       id="rect2985-6-7-1"
       inkscape:connector-curvature="0" />
    <path
       style="fill:#00ffff;stroke:none"
       d="m 984.28571,710.57645 27.09369,0 c -1.3409,3.0652 -2.0937,6.4404 -2.0937,10 0,13.8072 11.1929,25 24.9999,25 13.8072,0 25.0001,-11.1928 25.0001,-25 0,-3.5596 -0.7528,-6.9348 -2.0938,-10 l 27.0938,0 0,-27.0937 c -3.0599,1.3355 -6.448,2.0937 -10,2.0937 -13.8071,0 -25.0001,-11.1929 -25.0001,-24.9999 0,-13.8071 11.193,-25.0001 25.0001,-25.0001 3.552,0 6.9401,0.7584 10,2.0938 l 0,-27.09376 -27.0938,0 c 1.341,3.0651 2.0938,6.4404 2.0938,10 0,13.8071 -11.1929,25.00006 -25.0001,25.00006 -13.807,0 -24.9999,-11.19296 -24.9999,-25.00006 0,-3.5596 0.7528,-6.9349 2.0937,-10 l -27.09369,0 0,27.09376 c 3.0651,-1.3407 6.4403,-2.0938 9.99996,-2.0938 13.80713,0 25.00003,11.193 25.00003,25.0001 0,13.807 -11.1929,24.9999 -25.00003,24.9999 -3.55966,0 -6.93486,-0.7527 -9.99996,-2.0937 l 0,27.0937 z"
       id="rect2985-6-7-1-5"
       inkscape:connector-curvature="0" />
    <path
       inkscape:connector-curvature="0"
       style="fill:#00ffff;stroke:none"
       d="m 1291.4033,847.74435 c 0,-13.8072 -11.1929,-25 -25,-25 -3.5596,0 -6.9349,0.7528 -10,2.0937 l 0,-27.0937 -27.0937,0 c 1.3354,3.0598 2.0937,6.4478 2.0937,10 0,13.807 -11.1929,25 -25,25 -13.8071,0 -25,-11.193 -25,-25 0,-3.5522 0.7583,-6.9402 2.0938,-10 l -27.0938,0 0,27.0937 c 3.0651,-1.3409 6.4404,-2.0937 10,-2.0937 13.8071,0 25,11.1926 25,25 0,13.8069 -11.1929,25 -25,25 -3.5596,0 -6.9349,-0.7529 -10,-2.0938 l 0,27.0938 27.0938,0 c -1.3355,3.0599 -2.0938,6.4479 -2.0938,10 0,13.8071 11.1929,25 25,25 13.8071,0 25,-11.1929 25,-25 0,-3.5521 -0.7583,-6.9401 -2.0937,-10 l 27.0937,0 0,-27.0938 c 3.0651,1.3409 6.4404,2.0938 10,2.0938 13.8071,0 25,-11.1929 25,-25 z"
       id="rect2985-7-4" />
    <path
       inkscape:connector-curvature="0"
       style="fill:#00ffff;stroke:none"
       d="m 1411.7857,919.86218 c 13.8072,0 25,-11.1929 25,-25 0,-3.5596 -0.7528,-6.9349 -2.0937,-10 l 27.0937,0 0,-27.0937 c -3.0598,1.3354 -6.4478,2.0937 -10,2.0937 -13.807,0 -25,-11.1929 -25,-25 0,-13.8071 11.193,-25 25,-25 3.5522,0 6.9402,0.7583 10,2.0938 l 0,-27.0938 -27.0937,0 c 1.3409,3.0651 2.0937,6.4404 2.0937,10 0,13.8071 -11.1926,25 -25,25 -13.8069,0 -25,-11.1929 -25,-25 0,-3.5596 0.7529,-6.9349 2.0938,-10 l -27.0938,0 0,27.0938 c -3.0599,-1.3355 -6.4479,-2.0938 -10,-2.0938 -13.8071,0 -25,11.1929 -25,25 0,13.8071 11.1929,25 25,25 3.5521,0 6.9401,-0.7583 10,-2.0937 l 0,27.0937 27.0938,0 c -1.3409,3.0651 -2.0938,6.4404 -2.0938,10 0,13.8071 11.1929,25 25,25 z"
       id="rect2985-7-4-3" />
    <path
       inkscape:connector-curvature="0"
       style="fill:#00ffff;stroke:none"
       d="m 1349.6429,672.71932 c 0,13.8072 11.1929,25 25,25 3.5596,0 6.9349,-0.7528 10,-2.0937 l 0,27.0937 27.0937,0 c -1.3354,-3.0598 -2.0937,-6.4478 -2.0937,-10 0,-13.807 11.1929,-25 25,-25 13.8071,0 25,11.193 25,25 0,3.5522 -0.7583,6.9402 -2.0938,10 l 27.0938,0 0,-27.0937 c -3.0651,1.3409 -6.4404,2.0937 -10,2.0937 -13.8071,0 -25,-11.1926 -25,-25 0,-13.8069 11.1929,-25 25,-25 3.5596,0 6.9349,0.7529 10,2.0938 l 0,-27.0938 -27.0938,0 c 1.3355,-3.0599 2.0938,-6.4479 2.0938,-10 0,-13.8071 -11.1929,-25 -25,-25 -13.8071,0 -25,11.1929 -25,25 0,3.5521 0.7583,6.9401 2.0937,10 l -27.0937,0 0,27.0938 c -3.0651,-1.3409 -6.4404,-2.0938 -10,-2.0938 -13.8071,0 -25,11.1929 -25,25 z"
       id="rect2985-7-4-3-4" />
    <path
       sodipodi:type="arc"
       style="fill:#00ff00;stroke:none"
       id="path2987-0-3-5-3-2"
       sodipodi:cx="122.85714"
       sodipodi:cy="533.79077"
       sodipodi:rx="21.428572"
       sodipodi:ry="21.428572"
       d="m 144.28571,533.79077 a 21.428572,21.428572 0 1 1 -42.85714,0 21.428572,21.428572 0 1 1 42.85714,0 z"
       transform="matrix(0.55999999,0,0,0.55999999,-252.68332,923.47784)" />
    <path
       sodipodi:type="arc"
       style="fill:#00ff00;stroke:none"
       id="path2987-0-3-5-3-2-2"
       sodipodi:cx="122.85714"
       sodipodi:cy="533.79077"
       sodipodi:rx="21.428572"
       sodipodi:ry="21.428572"
       d="m 144.28571,533.79077 a 21.428572,21.428572 0 1 1 -42.85714,0 21.428572,21.428572 0 1 1 42.85714,0 z"
       transform="matrix(0.55999999,0,0,0.55999999,-271.68332,904.47784)" />
    <path
       sodipodi:type="arc"
       style="fill:#ff0000;stroke:none"
       id="path2987-0-3-5-6-8-5"
       sodipodi:cx="122.85714"
       sodipodi:cy="533.79077"
       sodipodi:rx="21.428572"
       sodipodi:ry="21.428572"
       d="m 144.28571,533.79077 a 21.428572,21.428572 0 1 1 -42.85714,0 21.428572,21.428572 0 1 1 42.85714,0 z"
       transform="matrix(0.55999999,0,0,0.55999999,-221.68332,904.47784)" />
    <path
       sodipodi:type="arc"
       style="fill:#00ff00;stroke:none"
       id="path2987-0-3-5-3-2-2-9"
       sodipodi:cx="122.85714"
       sodipodi:cy="533.79077"
       sodipodi:rx="21.428572"
       sodipodi:ry="21.428572"
       d="m 144.28571,533.79077 a 21.428572,21.428572 0 1 1 -42.85714,0 21.428572,21.428572 0 1 1 42.85714,0 z"
       transform="matrix(0.55999999,0,0,0.55999999,-233.68332,904.47784)" />
    <path
       sodipodi:type="arc"
       style="fill:#ff0000;stroke:none"
       id="path2987-0-3-5-6-9"
       sodipodi:cx="122.85714"
       sodipodi:cy="533.79077"
       sodipodi:rx="21.428572"
       sodipodi:ry="21.428572"
       d="m 144.28571,533.79077 a 21.428572,21.428572 0 1 1 -42.85714,0 21.428572,21.428572 0 1 1 42.85714,0 z"
       transform="matrix(0.55999999,0,0,0.55999999,-252.68332,873.47784)" />
    <path
       sodipodi:type="arc"
       style="fill:#00ff00;stroke:none"
       id="path2987-0-3-5-3-2-2-9-8"
       sodipodi:cx="122.85714"
       sodipodi:cy="533.79077"
       sodipodi:rx="21.428572"
       sodipodi:ry="21.428572"
       d="m 144.28571,533.79077 a 21.428572,21.428572 0 1 1 -42.85714,0 21.428572,21.428572 0 1 1 42.85714,0 z"
       transform="matrix(0.55999999,0,0,0.55999999,-252.68332,885.47784)" />
    <path
       style="fill:#00ffff;stroke:none"
       d="m -26.299526,1160.4007 c -6.62742,0 -12.000004,5.3726 -12.000004,12 0,2.1897 0.60049,4.2327 1.625,6 l -14.625,0 0,14.625 c -1.76498,-1.0209 -3.81439,-1.625 -6,-1.625 -6.62742,0 -12,5.3726 -12,12 0,6.6274 5.37258,12 12,12 2.18561,0 4.23502,-0.5728 6,-1.5938 l 0,14.5938 14.625,0 c -1.0269,1.7687 -1.625,3.8075 -1.625,6 0,6.6274 5.372584,12 12.000004,12 6.627417,0 12,-5.3726 12,-12 0,-2.1942 -0.596618,-4.2303 -1.625,-6 l 14.6250002,0 0,-14.5938 c 1.76497998,1.021 3.814388,1.5938 6,1.5938 6.6274168,0 11.9999998,-5.3726 11.9999998,-12 0,-6.6274 -5.372583,-12 -11.9999998,-12 -2.185612,0 -4.23502002,0.6041 -6,1.625 l 0,-14.625 -14.5937502,0 c 1.020925,-1.765 1.59375,-3.8144 1.59375,-6 0,-6.6274 -5.372583,-12 -12,-12 z"
       id="rect2985-00-0"
       inkscape:connector-curvature="0" />
    <path
       style="fill:#00ffff;stroke:none"
       d="m 41.634508,1170.3194 0,14.625 c 1.767241,-1.0245 3.810253,-1.625 6,-1.625 6.627417,0 12,5.3727 12,12.0001 0,6.6274 -5.372583,12 -12,12 -2.189747,0 -4.232759,-0.6005 -6,-1.625 l 0,14.625 14.625,0 c -1.024511,-1.7673 -1.625,-3.8103 -1.625,-6 0,-6.6274 5.372583,-12 12,-12 6.627417,0 12,5.3726 12,12 0,2.1897 -0.600489,4.2327 -1.625,6 l 14.625,0 0,-14.625 c -1.767241,1.0245 -3.810253,1.625 -6,1.625 -6.627417,0 -12,-5.3726 -12,-12 0,-6.6274 5.372583,-12.0001 12,-12.0001 2.189747,0 4.232759,0.6005 6,1.625 l 0,-14.625 -14.625,0 c 1.024511,1.7672 1.625,3.8102 1.625,6 0,6.6274 -5.372583,12.0001 -12,12.0001 -6.627417,0 -12,-5.3727 -12,-12.0001 0,-2.1898 0.600489,-4.2328 1.625,-6 l -14.625,0 z"
       id="rect2985-00-7"
       inkscape:connector-curvature="0" />
    <path
       style="fill:#00ffff;stroke:none"
       d="m 131.53809,1174.3601 0,14.625 c -1.76725,-1.0246 -3.81026,-1.625 -6,-1.625 -6.62742,0 -12,5.3725 -12,12 0,6.6274 5.37258,12 12,12 2.18561,0 4.23502,-0.5729 6,-1.5938 l 0,14.5938 14.62499,0 c -1.02091,1.7649 -1.625,3.8143 -1.625,6 0,6.6274 5.37259,12 12,12 6.62742,0 12,-5.3726 12,-12 0,-2.1857 -0.57283,-4.2351 -1.59375,-6 l 14.59375,0 0,-14.625 c -1.76724,1.0245 -3.81025,1.625 -6,1.625 -6.62742,0 -12,-5.3726 -12,-12 0,-6.6275 5.37258,-12 12,-12 2.18975,0 4.23276,0.6004 6,1.625 l 0,-14.625 -14.625,0 c 1.02451,1.7672 1.625,3.8102 1.625,6 0,6.6274 -5.37258,12 -12,12 -6.62741,0 -12,-5.3726 -12,-12 0,-2.1898 0.6005,-4.2328 1.625,-6 l -14.62499,0 z"
       id="rect2985-00-2"
       inkscape:connector-curvature="0" />
    <path
       style="fill:#00ffff;stroke:none"
       d="m 243.4112,1158.3804 c -6.62742,0 -12,5.3726 -12,12 0,2.1856 0.60408,4.2351 1.625,6 l -14.625,0 0,14.625 c 1.76724,-1.0245 3.81025,-1.625 6,-1.625 6.62742,0 12,5.3726 12,12 0,6.6275 -5.37258,12 -12,12 -2.18975,0 -4.23276,-0.6005 -6,-1.625 l 0,14.625 14.625,0 c -1.02092,1.765 -1.625,3.8144 -1.625,6 0,6.6275 5.37258,12 12,12 6.62742,0 12,-5.3725 12,-12 0,-2.1856 -0.57283,-4.235 -1.59375,-6 l 14.59375,0 0,-14.625 c -1.76724,1.0245 -3.81025,1.625 -6,1.625 -6.62742,0 -12,-5.3725 -12,-12 0,-6.6274 5.37258,-12 12,-12 2.18975,0 4.23276,0.6005 6,1.625 l 0,-14.625 -14.59375,0 c 1.02092,-1.7649 1.59375,-3.8144 1.59375,-6 0,-6.6274 -5.37258,-12 -12,-12 z"
       id="rect2985-00-9"
       inkscape:connector-curvature="0" />
    <path
       style="fill:#00ffff;stroke:none"
       d="m 312.35539,1180.421 0,14.625 c -1.76874,-1.0269 -3.8075,-1.625 -6,-1.625 -6.62742,0 -12,5.3726 -12,12 0,6.6275 5.37258,12 12,12 2.1942,0 4.23033,-0.5966 6,-1.625 l 0,14.625 14.59375,0 c -1.02092,1.765 -1.59375,3.8144 -1.59375,6 0,6.6275 5.37258,12 12,12 6.62742,0 12,-5.3725 12,-12 0,-2.1856 -0.60408,-4.235 -1.625,-6 l 14.625,0 0,-14.5937 c 1.76498,1.0209 3.81439,1.5937 6,1.5937 6.62742,0 12,-5.3725 12,-12 0,-6.6274 -5.37258,-12 -12,-12 -2.18975,0 -4.23276,0.6005 -6,1.625 l 0,-14.625 -14.625,0 c 1.02092,1.765 1.625,3.8144 1.625,6 0,6.6275 -5.37258,12 -12,12 -6.62742,0 -12,-5.3725 -12,-12 0,-2.1856 0.57283,-4.235 1.59375,-6 l -14.59375,0 z"
       id="rect2985-00-8"
       inkscape:connector-curvature="0" />
    <path
       style="fill:#00ffff;stroke:none"
       d="m 419.17775,1169.4921 c -6.62742,0 -12,5.3726 -12,12 0,2.1897 0.60049,4.2327 1.625,6 l -14.625,0 0,14.625 c 1.76724,-1.0245 3.81025,-1.625 6,-1.625 6.62742,0 12,5.3726 12,12 0,6.6274 -5.37258,12 -12,12 -2.18975,0 -4.23276,-0.6005 -6,-1.625 l 0,14.625 14.625,0 c -1.02451,-1.7673 -1.625,-3.8103 -1.625,-6 0,-6.6274 5.37258,-12 12,-12 6.62742,0 12,5.3726 12,12 0,2.1897 -0.60049,4.2327 -1.625,6 l 14.625,0 0,-14.625 c -1.76724,1.0245 -3.81025,1.625 -6,1.625 -6.62742,0 -12,-5.3726 -12,-12 0,-6.6274 5.37258,-12 12,-12 2.18975,0 4.23276,0.6005 6,1.625 l 0,-14.625 -14.625,0 c 1.02451,-1.7673 1.625,-3.8103 1.625,-6 0,-6.6274 -5.37258,-12 -12,-12 z"
       id="rect2985-00-3"
       inkscape:connector-curvature="0" />
    <rect
       style="fill:#00ffff;stroke:none"
       id="rect2985-00-74-5"
       width="25"
       height="25"
       x="-171.09396"
       y="1076.2277" />
    <path
       sodipodi:type="arc"
       style="fill:#ff0000;stroke:none"
       id="path2987-0-3-5-6-0-9"
       sodipodi:cx="122.85714"
       sodipodi:cy="533.79077"
       sodipodi:rx="21.428572"
       sodipodi:ry="21.428572"
       d="m 144.28571,533.79077 a 21.428572,21.428572 0 1 1 -42.85714,0 21.428572,21.428572 0 1 1 42.85714,0 z"
       transform="matrix(0.30333333,0,0,0.30333333,-195.86062,941.81116)" />
    <path
       sodipodi:type="arc"
       style="fill:#00ff00;stroke:none"
       id="path2987-0-3-5-3-2-6-2"
       sodipodi:cx="122.85714"
       sodipodi:cy="533.79077"
       sodipodi:rx="21.428572"
       sodipodi:ry="21.428572"
       d="m 144.28571,533.79077 a 21.428572,21.428572 0 1 1 -42.85714,0 21.428572,21.428572 0 1 1 42.85714,0 z"
       transform="matrix(0.30333333,0,0,0.30333333,-195.86062,936.81116)" />
    <path
       sodipodi:type="arc"
       style="fill:#ff0000;stroke:none"
       id="path2987-0-3-5-6-0-3-6"
       sodipodi:cx="122.85714"
       sodipodi:cy="533.79077"
       sodipodi:rx="21.428572"
       sodipodi:ry="21.428572"
       d="m 144.28571,533.79077 a 21.428572,21.428572 0 1 1 -42.85714,0 21.428572,21.428572 0 1 1 42.85714,0 z"
       transform="matrix(0.30333333,0,0,0.30333333,-195.86062,911.81116)" />
    <path
       sodipodi:type="arc"
       style="fill:#00ff00;stroke:none"
       id="path2987-0-3-5-3-2-6-0-3"
       sodipodi:cx="122.85714"
       sodipodi:cy="533.79077"
       sodipodi:rx="21.428572"
       sodipodi:ry="21.428572"
       d="m 144.28571,533.79077 a 21.428572,21.428572 0 1 1 -42.85714,0 21.428572,21.428572 0 1 1 42.85714,0 z"
       transform="matrix(0.30333333,0,0,0.30333333,-195.86062,916.81116)" />
    <path
       sodipodi:type="arc"
       style="fill:#ff0000;stroke:none"
       id="path2987-0-3-5-6-0-0-3"
       sodipodi:cx="122.85714"
       sodipodi:cy="533.79077"
       sodipodi:rx="21.428572"
       sodipodi:ry="21.428572"
       d="m 144.28571,533.79077 a 21.428572,21.428572 0 1 1 -42.85714,0 21.428572,21.428572 0 1 1 42.85714,0 z"
       transform="matrix(0,-0.30333333,0.30333333,0,-335.51048,1125.9943)" />
    <path
       sodipodi:type="arc"
       style="fill:#00ff00;stroke:none"
       id="path2987-0-3-5-3-2-6-4-5"
       sodipodi:cx="122.85714"
       sodipodi:cy="533.79077"
       sodipodi:rx="21.428572"
       sodipodi:ry="21.428572"
       d="m 144.28571,533.79077 a 21.428572,21.428572 0 1 1 -42.85714,0 21.428572,21.428572 0 1 1 42.85714,0 z"
       transform="matrix(0,-0.30333333,0.30333333,0,-330.51048,1125.9943)" />
    <path
       sodipodi:type="arc"
       style="fill:#ff0000;stroke:none"
       id="path2987-0-3-5-6-0-3-9-5"
       sodipodi:cx="122.85714"
       sodipodi:cy="533.79077"
       sodipodi:rx="21.428572"
       sodipodi:ry="21.428572"
       d="m 144.28571,533.79077 a 21.428572,21.428572 0 1 1 -42.85714,0 21.428572,21.428572 0 1 1 42.85714,0 z"
       transform="matrix(0,-0.30333333,0.30333333,0,-305.51048,1125.9943)" />
    <path
       sodipodi:type="arc"
       style="fill:#00ff00;stroke:none"
       id="path2987-0-3-5-3-2-6-0-2-6"
       sodipodi:cx="122.85714"
       sodipodi:cy="533.79077"
       sodipodi:rx="21.428572"
       sodipodi:ry="21.428572"
       d="m 144.28571,533.79077 a 21.428572,21.428572 0 1 1 -42.85714,0 21.428572,21.428572 0 1 1 42.85714,0 z"
       transform="matrix(0,-0.30333333,0.30333333,0,-310.51048,1125.9943)" />
    <path
       style="fill:#00ffff;stroke:none"
       d="m -49.928572,1065.0765 c -3.589851,0 -6.5,2.9101 -6.5,6.5 0,0.8871 0.209515,1.7296 0.53125,2.5 l -6.53125,0 0,6.5 c -0.770406,-0.3217 -1.612935,-0.5 -2.5,-0.5 -3.589851,0 -6.5,2.9101 -6.5,6.5 0,3.5899 2.910149,6.5 6.5,6.5 0.887065,0 1.729594,-0.1783 2.5,-0.5 l 0,6.5 6.53125,0 c -0.321735,0.7704 -0.53125,1.6129 -0.53125,2.5 0,3.5899 2.910149,6.5 6.5,6.5 3.589851,0 6.5,-2.9101 6.5,-6.5 0,-0.8871 -0.178265,-1.7296 -0.5,-2.5 l 6.5,0 0,-6.5 c 0.770406,0.3217 1.612935,0.5 2.5,0.5 3.589851,0 6.5,-2.9101 6.5,-6.5 0,-3.5899 -2.910149,-6.5 -6.5,-6.5 -0.887065,0 -1.729594,0.1783 -2.5,0.5 l 0,-6.5 -6.5,0 c 0.321735,-0.7704 0.5,-1.6129 0.5,-2.5 0,-3.5899 -2.910149,-6.5 -6.5,-6.5 z"
       id="rect2985-00-74-5-7"
       inkscape:connector-curvature="0" />
    <path
       style="fill:#00ffff;stroke:none"
       d="m -5.2857143,1079.0765 0,6.5 c 0.770406,-0.3217 1.612935,-0.5 2.5,-0.5 3.58985099,0 6.5,2.9101 6.5,6.5 0,3.5899 -2.91014901,6.5 -6.5,6.5 -0.887065,0 -1.729594,-0.1783 -2.5,-0.5 l 0,6.5 6.5,0 c -0.32173501,-0.7704 -0.50000001,-1.6129 -0.50000001,-2.5 0,-3.5899 2.91014901,-6.5 6.50000001,-6.5 3.5898513,0 6.5000003,2.9101 6.5000003,6.5 0,0.8871 -0.178265,1.7296 -0.5,2.5 l 6.5,0 0,-6.5 c -0.770406,0.3217 -1.612935,0.5 -2.5,0.5 -3.589851,0 -6.5,-2.9101 -6.5,-6.5 0,-3.5899 2.910149,-6.5 6.5,-6.5 0.887065,0 1.729594,0.1783 2.5,0.5 l 0,-6.5 -6.5,0 c 0.321735,0.7704 0.5,1.6129 0.5,2.5 0,3.5899 -2.910149,6.5 -6.5000003,6.5 -3.589851,0 -6.50000001,-2.9101 -6.50000001,-6.5 0,-0.8871 0.178265,-1.7296 0.50000001,-2.5 l -6.5,0 z"
       id="rect2985-00-74-5-4"
       inkscape:connector-curvature="0" />
    <path
       style="fill:#00ffff;stroke:none"
       d="m 51.5,1080.8622 0,6.5312 c -0.770406,-0.3217 -1.612935,-0.5312 -2.5,-0.5312 -3.589851,0 -6.5,2.9101 -6.5,6.5 0,3.5898 2.910149,6.5 6.5,6.5 0.887065,0 1.729594,-0.1783 2.5,-0.5 l 0,6.5 6.53125,0 c -0.321735,0.7704 -0.53125,1.6129 -0.53125,2.5 0,3.5898 2.910149,6.5 6.5,6.5 3.589851,0 6.5,-2.9102 6.5,-6.5 0,-0.8871 -0.178265,-1.7296 -0.5,-2.5 l 6.5,0 0,-6.5 c -0.770406,0.3217 -1.612935,0.5 -2.5,0.5 -3.589851,0 -6.5,-2.9102 -6.5,-6.5 0,-3.5899 2.910149,-6.5 6.5,-6.5 0.887065,0 1.729594,0.1782 2.5,0.5 l 0,-6.5 -6.5,0 c 0.321735,0.7704 0.5,1.6129 0.5,2.5 0,3.5898 -2.910149,6.5 -6.5,6.5 -3.589851,0 -6.5,-2.9102 -6.5,-6.5 0,-0.8871 0.178265,-1.7296 0.5,-2.5 l -6.5,0 z"
       id="rect2985-00-74-5-77"
       inkscape:connector-curvature="0" />
    <path
       style="fill:#00ffff;stroke:none"
       d="m 99.357143,1073.7193 0,6.5313 c -0.77041,-0.3218 -1.61293,-0.5313 -2.5,-0.5313 -3.589851,0 -6.5,2.9101 -6.5,6.5 0,3.5899 2.910149,6.5 6.5,6.5 0.88707,0 1.72959,-0.1783 2.5,-0.5 l 0,6.5 6.499997,0 c -0.32174,0.7704 -0.5,1.6129 -0.5,2.5 0,3.5899 2.91015,6.5 6.5,6.5 3.58985,0 6.5,-2.9101 6.5,-6.5 0,-0.8871 -0.20951,-1.7296 -0.53125,-2.5 l 6.53125,0 0,-6.5 c 0.77041,0.3217 1.61293,0.5 2.5,0.5 3.58985,0 6.5,-2.9101 6.5,-6.5 0,-3.5899 -2.91015,-6.5 -6.5,-6.5 -0.88707,0 -1.72959,0.2095 -2.5,0.5313 l 0,-6.5313 -6.53125,0 c 0.32174,0.7704 0.53125,1.6129 0.53125,2.5 0,3.5899 -2.91015,6.5 -6.5,6.5 -3.58985,0 -6.5,-2.9101 -6.5,-6.5 0,-0.8871 0.17826,-1.7296 0.5,-2.5 l -6.499997,0 z"
       id="rect2985-00-74-5-9"
       inkscape:connector-curvature="0" />
    <path
       style="fill:#00ffff;stroke:none"
       d="m 175.42857,1075.4336 c -3.58985,0 -6.5,2.9101 -6.5,6.5 0,0.8871 0.17826,1.7296 0.5,2.5 l -6.5,0 0,6.5 c 0.77041,-0.3217 1.61293,-0.5 2.5,-0.5 3.58985,0 6.5,2.9101 6.5,6.5 0,3.5899 -2.91015,6.5 -6.5,6.5 -0.88707,0 -1.72959,-0.1783 -2.5,-0.5 l 0,6.5 6.5,0 c -0.32174,-0.7704 -0.5,-1.6129 -0.5,-2.5 0,-3.5899 2.91015,-6.5 6.5,-6.5 3.58985,0 6.5,2.9101 6.5,6.5 0,0.8871 -0.17826,1.7296 -0.5,2.5 l 6.5,0 0,-6.5 c -0.77041,0.3217 -1.61293,0.5 -2.5,0.5 -3.58985,0 -6.5,-2.9101 -6.5,-6.5 0,-3.5899 2.91015,-6.5 6.5,-6.5 0.88707,0 1.72959,0.1783 2.5,0.5 l 0,-6.5 -6.53125,0 c 0.32174,-0.7704 0.53125,-1.6129 0.53125,-2.5 0,-3.5899 -2.91015,-6.5 -6.5,-6.5 z"
       id="rect2985-00-74-5-46"
       inkscape:connector-curvature="0" />
    <path
       style="fill:#00ffff;stroke:none"
       d="m 219,1072.5765 c -3.58985,0 -6.5,2.9101 -6.5,6.5 0,0.887 0.17826,1.7295 0.5,2.5 l -6.5,0 0,6.5 c 0.77041,-0.3218 1.61293,-0.5 2.5,-0.5 3.58985,0 6.5,2.9101 6.5,6.5 0,3.5898 -2.91015,6.5 -6.5,6.5 -0.88707,0 -1.72959,-0.1783 -2.5,-0.5 l 0,6.5 6.5,0 c -0.32174,0.7704 -0.5,1.6129 -0.5,2.5 0,3.5898 2.91015,6.5 6.5,6.5 3.58985,0 6.5,-2.9102 6.5,-6.5 0,-0.8871 -0.20951,-1.7296 -0.53125,-2.5 l 6.53125,0 0,-6.5 c -0.77041,0.3217 -1.61293,0.5 -2.5,0.5 -3.58985,0 -6.5,-2.9102 -6.5,-6.5 0,-3.5899 2.91015,-6.5 6.5,-6.5 0.88707,0 1.72959,0.1782 2.5,0.5 l 0,-6.5 -6.53125,0 c 0.32174,-0.7705 0.53125,-1.613 0.53125,-2.5 0,-3.5899 -2.91015,-6.5 -6.5,-6.5 z"
       id="rect2985-00-74-5-8"
       inkscape:connector-curvature="0" />
  </g>
</svg>
